<svg width="45" height="53" viewBox="0 0 45 53" fill="none" xmlns="http://www.w3.org/2000/svg">
<g clip-path="url(#clip0_5_439)">
<path fill-rule="evenodd" clip-rule="evenodd" d="M19.8286 31.3707H26.8788C27.2093 31.3707 27.4847 31.701 27.3745 32.0312C27.0441 33.297 26.1077 35.3884 23.1334 35.2233C21.6463 35.1132 19.5532 34.5078 19.2778 31.9211C19.2778 31.5909 19.4982 31.3707 19.8286 31.3707ZM39.3819 31.3707C39.3819 33.5172 37.6744 35.2233 35.5263 35.2233C33.3782 35.2233 31.6707 33.5172 31.6707 31.3707C31.6707 29.2243 33.3782 27.5182 35.5263 27.5182C37.6193 27.5182 39.3819 29.2243 39.3819 31.3707ZM11.2913 35.2233C13.4394 35.2233 15.1469 33.5172 15.1469 31.3707C15.1469 29.2243 13.4394 27.5182 11.2913 27.5182C9.1432 27.5182 7.43574 29.2243 7.43574 31.3707C7.43574 33.5172 9.1432 35.2233 11.2913 35.2233ZM3.63525 38.9107C0.93635 32.2513 1.81762 25.2617 5.1224 19.8131L21.3158 9.46627C22.0318 9.41124 22.8029 9.3562 23.574 9.3562H24.4002C35.8017 9.3562 45.0551 18.6023 45.0551 29.9948C45.0551 33.0218 44.4492 35.9938 43.2925 38.8006C42.1359 41.6075 40.4284 44.1392 38.2803 46.2856C36.1322 48.432 33.5985 50.1381 30.7895 51.2939C27.9804 52.4497 25.0061 53.0551 21.9767 53.0551H1.32191C1.04651 53.0551 0.771111 52.945 0.550793 52.8349C0.330475 52.7248 0.165236 52.4497 0.0550772 52.1745C-0.0550819 51.8993 -0.0550819 51.6241 0.0550772 51.3489C0.110157 51.0738 0.275395 50.8536 0.495714 50.6885L5.72827 46.5057C5.94859 46.3406 6.11383 46.0654 6.16891 45.7903C6.22399 45.5151 6.22399 45.2399 6.11383 44.9647L3.63525 38.9107Z" fill="#26A43A"/>
<path fill-rule="evenodd" clip-rule="evenodd" d="M17.5153 8.69577L20.7099 6.65942C21.0955 6.43928 21.5912 6.54935 21.8666 6.87957C22.0869 7.26482 21.9767 7.76015 21.6463 8.03533L5.72827 18.2721L4.847 16.8962C2.69889 13.3739 3.69033 8.80584 7.16034 6.60438C10.6303 4.40293 15.202 5.28351 17.5153 8.69577Z" fill="#26A43A"/>
</g>
<defs>
<clipPath id="clip0_5_439">
<rect width="45" height="53" fill="white"/>
</clipPath>
</defs>
</svg>
